<?xml version="1.0" encoding="utf-8" standalone="no"?>
<!DOCTYPE svg PUBLIC "-//W3C//DTD SVG 1.1//EN"
  "http://www.w3.org/Graphics/SVG/1.1/DTD/svg11.dtd">
<!-- Created with matplotlib (https://matplotlib.org/) -->
<svg height="504pt" version="1.1" viewBox="0 0 648 504" width="648pt" xmlns="http://www.w3.org/2000/svg" xmlns:xlink="http://www.w3.org/1999/xlink">
 <metadata>
  <rdf:RDF xmlns:cc="http://creativecommons.org/ns#" xmlns:dc="http://purl.org/dc/elements/1.1/" xmlns:rdf="http://www.w3.org/1999/02/22-rdf-syntax-ns#">
   <cc:Work>
    <dc:type rdf:resource="http://purl.org/dc/dcmitype/StillImage"/>
    <dc:date>2020-10-24T13:12:06.207651</dc:date>
    <dc:format>image/svg+xml</dc:format>
    <dc:creator>
     <cc:Agent>
      <dc:title>Matplotlib v3.3.2, https://matplotlib.org/</dc:title>
     </cc:Agent>
    </dc:creator>
   </cc:Work>
  </rdf:RDF>
 </metadata>
 <defs>
  <style type="text/css">*{stroke-linecap:butt;stroke-linejoin:round;}</style>
 </defs>
 <g id="figure_1">
  <g id="patch_1">
   <path d="M 0 504 
L 648 504 
L 648 0 
L 0 0 
z
" style="fill:#ffffff;"/>
  </g>
  <g id="axes_1">
   <g id="patch_2">
    <path d="M 81 448.56 
L 583.2 448.56 
L 583.2 60.48 
L 81 60.48 
z
" style="fill:#ffffff;"/>
   </g>
   <g id="matplotlib.axis_1">
    <g id="xtick_1">
     <g id="line2d_1">
      <defs>
       <path d="M 0 0 
L 0 3.5 
" id="m8c7c492c35" style="stroke:#000000;stroke-width:0.8;"/>
      </defs>
      <g>
       <use style="stroke:#000000;stroke-width:0.8;" x="103.827273" xlink:href="#m8c7c492c35" y="448.56"/>
      </g>
     </g>
     <g id="text_1">
      <!-- 0 -->
      <g transform="translate(99.136648 468.76)scale(0.2 -0.2)">
       <defs>
        <path d="M 23.703125 63.5 
Q 32 63.5 38.046875 54.140625 
Q 44.09375 44.796875 44.09375 30.90625 
Q 44.09375 17.09375 38.046875 7.75 
Q 32 -1.59375 23.703125 -1.59375 
Q 15.703125 -1.59375 9.5 7.65625 
Q 3.296875 16.90625 3.296875 30.90625 
Q 3.296875 44.796875 9.34375 54.140625 
Q 15.40625 63.5 23.703125 63.5 
z
M 23.703125 0.703125 
Q 31.09375 0.703125 33.9375 8.046875 
Q 36.796875 15.40625 36.796875 30.90625 
Q 36.796875 46.40625 33.9375 53.796875 
Q 31.09375 61.203125 23.703125 61.203125 
Q 16.296875 61.203125 13.4375 53.796875 
Q 10.59375 46.40625 10.59375 30.90625 
Q 10.59375 0.703125 23.703125 0.703125 
z
" id="STKaiti-48"/>
       </defs>
       <use xlink:href="#STKaiti-48"/>
      </g>
     </g>
    </g>
    <g id="xtick_2">
     <g id="line2d_2">
      <g>
       <use style="stroke:#000000;stroke-width:0.8;" x="223.970813" xlink:href="#m8c7c492c35" y="448.56"/>
      </g>
     </g>
     <g id="text_2">
      <!-- 5 -->
      <g transform="translate(219.280188 468.76)scale(0.2 -0.2)">
       <defs>
        <path d="M 38 56.59375 
L 24 56.59375 
Q 16.203125 56.59375 15.40625 56.296875 
L 14.09375 38 
Q 18.5 40.09375 23.09375 40.09375 
Q 31.296875 40.09375 37 34.5 
Q 42.703125 28.90625 42.703125 19.90625 
Q 42.703125 9.90625 35.640625 4.15625 
Q 28.59375 -1.59375 19.59375 -1.59375 
Q 14.59375 -1.59375 10.390625 0.15625 
Q 6.203125 1.90625 6.203125 4 
Q 6.203125 5 7.09375 6.046875 
Q 8 7.09375 9.59375 7.09375 
Q 10.703125 7.09375 11.40625 6.59375 
Q 18.40625 1.296875 22.703125 1.296875 
Q 28.296875 1.296875 32.59375 6.140625 
Q 36.90625 11 36.90625 17.59375 
Q 36.90625 24.59375 32.546875 29.25 
Q 28.203125 33.90625 21.796875 33.90625 
Q 19 33.90625 16.546875 33 
Q 14.09375 32.09375 13 30.5 
L 11.296875 30.5 
L 13.203125 62.5 
L 24.09375 62.5 
Q 31.59375 62.5 34 62.703125 
Q 36.40625 62.90625 37.40625 64.203125 
L 38.90625 64.203125 
z
" id="STKaiti-53"/>
       </defs>
       <use xlink:href="#STKaiti-53"/>
      </g>
     </g>
    </g>
    <g id="xtick_3">
     <g id="line2d_3">
      <g>
       <use style="stroke:#000000;stroke-width:0.8;" x="344.114354" xlink:href="#m8c7c492c35" y="448.56"/>
      </g>
     </g>
     <g id="text_3">
      <!-- 10 -->
      <g transform="translate(334.733104 468.76)scale(0.2 -0.2)">
       <defs>
        <path d="M 35.5 -0.296875 
Q 30.296875 0 23.796875 0 
Q 17.296875 0 12.09375 -0.296875 
L 12.09375 1.296875 
L 17.296875 2.203125 
Q 20.796875 2.90625 20.796875 6.09375 
L 20.796875 55.5 
L 8.90625 47.796875 
L 7.5 49.703125 
Q 14.40625 54.203125 24.09375 63.5 
L 27.40625 63.5 
L 27.40625 6.09375 
Q 27.40625 2.703125 30.90625 2.09375 
L 35.5 1.296875 
z
" id="STKaiti-49"/>
       </defs>
       <use xlink:href="#STKaiti-49"/>
       <use x="46.899994" xlink:href="#STKaiti-48"/>
      </g>
     </g>
    </g>
    <g id="xtick_4">
     <g id="line2d_4">
      <g>
       <use style="stroke:#000000;stroke-width:0.8;" x="464.257895" xlink:href="#m8c7c492c35" y="448.56"/>
      </g>
     </g>
     <g id="text_4">
      <!-- 15 -->
      <g transform="translate(454.876645 468.76)scale(0.2 -0.2)">
       <use xlink:href="#STKaiti-49"/>
       <use x="46.899994" xlink:href="#STKaiti-53"/>
      </g>
     </g>
    </g>
    <g id="text_5">
     <!-- Epoch -->
     <g transform="translate(306.070312 491.100625)scale(0.2 -0.2)">
      <defs>
       <path d="M 63.296875 16.203125 
Q 61.09375 7 60.796875 -0.296875 
Q 48.40625 0 31.59375 0 
Q 14.796875 0 2.40625 -0.296875 
L 2.40625 1.40625 
L 9.59375 1.90625 
Q 11.296875 2 11.9375 2.59375 
Q 12.59375 3.203125 12.59375 5.40625 
L 12.59375 55.703125 
Q 12.59375 58.09375 12.046875 59.140625 
Q 11.5 60.203125 10.09375 60.296875 
L 2.796875 61 
L 2.796875 62.796875 
Q 10.90625 62.5 29.703125 62.5 
Q 48.703125 62.5 56.59375 62.796875 
Q 56.296875 59.703125 56.296875 55.40625 
Q 56.296875 52.09375 56.5 48.90625 
L 55.203125 48.90625 
Q 53 54.40625 51.796875 56.75 
Q 50.59375 59.09375 49.59375 59.796875 
Q 48.59375 60.5 46.90625 60.5 
L 23.703125 60.5 
Q 22 60.5 21.390625 59.546875 
Q 20.796875 58.59375 20.796875 56.296875 
L 20.796875 33.296875 
L 43.296875 33.296875 
Q 45 33.296875 45.796875 33.84375 
Q 46.59375 34.40625 47 36.296875 
L 48.296875 43.296875 
L 50.296875 43.296875 
Q 50 37.40625 50 31.296875 
Q 50 25.296875 50.296875 19.296875 
L 49.09375 19.296875 
L 46.90625 27.09375 
Q 46.203125 29.296875 44.890625 30.140625 
Q 43.59375 31 41 31 
L 20.796875 31 
L 20.796875 6.09375 
Q 20.796875 3.90625 21.59375 3.046875 
Q 22.40625 2.203125 25 2.203125 
L 47.203125 2.203125 
Q 50.203125 2.203125 52.25 3.140625 
Q 54.296875 4.09375 56.4375 7.09375 
Q 58.59375 10.09375 61.296875 16.203125 
z
" id="STKaiti-69"/>
       <path d="M 13.90625 33.703125 
Q 22.59375 39.90625 30.703125 39.90625 
Q 38.203125 39.90625 42.796875 34.546875 
Q 47.40625 29.203125 47.40625 20.203125 
Q 47.40625 11.09375 41.296875 4.75 
Q 35.203125 -1.59375 25.703125 -1.59375 
Q 20 -1.59375 13.90625 1.296875 
L 13.90625 -19.90625 
Q 13.90625 -21.203125 14.75 -21.953125 
Q 15.59375 -22.703125 18.09375 -23.09375 
L 24.09375 -24.09375 
L 24.09375 -25.703125 
Q 20.203125 -25.296875 12.59375 -25.296875 
Q 6.296875 -25.296875 1.203125 -25.703125 
L 1.203125 -24.09375 
L 5.40625 -23.296875 
Q 6.90625 -23 7.34375 -22.34375 
Q 7.796875 -21.703125 7.796875 -19.796875 
L 7.796875 30.296875 
Q 7.796875 33.90625 6.5 34.09375 
L 1.59375 34.90625 
L 1.90625 36.296875 
Q 6.90625 38.40625 8.953125 39.796875 
Q 11 41.203125 12.40625 43.5 
L 13.90625 43.5 
z
M 13.90625 30.703125 
L 13.90625 8.796875 
Q 13.90625 5.203125 17.203125 2.84375 
Q 20.5 0.5 25.703125 0.5 
Q 32.09375 0.5 36.296875 5.25 
Q 40.5 10 40.5 16.796875 
Q 40.5 25.5 36.796875 30.390625 
Q 33.09375 35.296875 26.90625 35.296875 
Q 20.796875 35.296875 13.90625 30.703125 
z
" id="STKaiti-112"/>
       <path d="M 24.796875 -1.59375 
Q 16.09375 -1.59375 10 4.203125 
Q 3.90625 10 3.90625 19.296875 
Q 3.90625 28.203125 10 34.046875 
Q 16.09375 39.90625 26 39.90625 
Q 35.203125 39.90625 41.09375 33.75 
Q 47 27.59375 47 18.5 
Q 47 10.203125 40.75 4.296875 
Q 34.5 -1.59375 24.796875 -1.59375 
z
M 11.09375 18.296875 
Q 11.09375 10 15 5.140625 
Q 18.90625 0.296875 25.09375 0.296875 
Q 31.5 0.296875 35.640625 5.390625 
Q 39.796875 10.5 39.796875 18.90625 
Q 39.796875 27.5 35.890625 32.75 
Q 32 38 25.59375 38 
Q 18.703125 38 14.890625 33 
Q 11.09375 28 11.09375 18.296875 
z
" id="STKaiti-111"/>
       <path d="M 39 8.90625 
L 39.09375 5.796875 
Q 35.40625 1.90625 31.703125 0.15625 
Q 28 -1.59375 22.796875 -1.59375 
Q 15 -1.59375 9.75 4.5 
Q 4.5 10.59375 4.5 19.703125 
Q 4.5 29.59375 10 34.75 
Q 15.5 39.90625 26.09375 39.90625 
Q 31.59375 39.90625 35.046875 38.296875 
Q 38.5 36.703125 38.5 34 
Q 38.5 32.59375 37.546875 31.5 
Q 36.59375 30.40625 35 30.40625 
Q 32.40625 30.40625 29.40625 33.40625 
Q 26.09375 36.703125 22.5 36.703125 
Q 18.203125 36.703125 14.953125 32.046875 
Q 11.703125 27.40625 11.703125 20.40625 
Q 11.703125 12.40625 15.890625 7.703125 
Q 20.09375 3 25.796875 3 
Q 32.296875 3 39 8.90625 
z
" id="STKaiti-99"/>
       <path d="M 9 55.296875 
Q 9 58 7.75 59.046875 
Q 6.5 60.09375 1.59375 61.203125 
L 1.59375 62.40625 
Q 5.796875 62.59375 12.59375 66 
L 15 66 
L 15 30.703125 
Q 22.296875 39.90625 31 39.90625 
Q 36.296875 39.90625 39.546875 36.296875 
Q 42.796875 32.703125 42.796875 26.296875 
L 42.796875 4.703125 
Q 42.796875 3.703125 43.1875 3.140625 
Q 43.59375 2.59375 45.296875 2.203125 
L 49.703125 1.203125 
L 49.703125 -0.40625 
Q 43.5 0 40.09375 0 
Q 36.59375 0 30.40625 -0.40625 
L 30.40625 1.203125 
L 34.5 2.296875 
Q 35.796875 2.703125 36.34375 3.203125 
Q 36.90625 3.703125 36.90625 5.40625 
L 36.90625 26.09375 
Q 36.90625 30.296875 34.40625 32.796875 
Q 31.90625 35.296875 27.5 35.296875 
Q 24.09375 35.296875 21.1875 33.34375 
Q 18.296875 31.40625 15 27.203125 
L 15 5.40625 
Q 15 4.203125 15.34375 3.703125 
Q 15.703125 3.203125 16.90625 2.90625 
L 23.703125 1.203125 
L 23.703125 -0.40625 
Q 20.5 0 12.59375 0 
Q 4.703125 0 1.5 -0.40625 
L 1.5 1.203125 
L 6.90625 2.296875 
Q 8.203125 2.59375 8.59375 2.9375 
Q 9 3.296875 9 4.5 
z
" id="STKaiti-104"/>
      </defs>
      <use xlink:href="#STKaiti-69"/>
      <use x="65.599991" xlink:href="#STKaiti-112"/>
      <use x="116.599976" xlink:href="#STKaiti-111"/>
      <use x="167.59996" xlink:href="#STKaiti-99"/>
      <use x="209.299957" xlink:href="#STKaiti-104"/>
     </g>
    </g>
   </g>
   <g id="matplotlib.axis_2">
    <g id="ytick_1">
     <g id="line2d_5">
      <defs>
       <path d="M 0 0 
L -3.5 0 
" id="mdcd8e31938" style="stroke:#000000;stroke-width:0.8;"/>
      </defs>
      <g>
       <use style="stroke:#000000;stroke-width:0.8;" x="81" xlink:href="#mdcd8e31938" y="422.72008"/>
      </g>
     </g>
     <g id="text_6">
      <!-- 0.08 -->
      <g transform="translate(41.475 429.32008)scale(0.2 -0.2)">
       <defs>
        <path d="M 11 -1.59375 
Q 8.796875 -1.59375 7.296875 -0.09375 
Q 5.796875 1.40625 5.796875 3.59375 
Q 5.796875 5.796875 7.296875 7.296875 
Q 8.796875 8.796875 11 8.796875 
Q 13.203125 8.796875 14.703125 7.296875 
Q 16.203125 5.796875 16.203125 3.59375 
Q 16.203125 1.40625 14.703125 -0.09375 
Q 13.203125 -1.59375 11 -1.59375 
z
" id="STKaiti-46"/>
        <path d="M 19.796875 31.203125 
Q 7.703125 37.203125 7.703125 47.5 
Q 7.703125 53.703125 12.640625 58.59375 
Q 17.59375 63.5 24.296875 63.5 
Q 31.90625 63.5 36.59375 59.390625 
Q 41.296875 55.296875 41.296875 49.09375 
Q 41.296875 43.703125 38.296875 40.390625 
Q 35.296875 37.09375 29.703125 34.296875 
Q 38.90625 29.90625 41.5 25.40625 
Q 44.09375 20.90625 44.09375 16.40625 
Q 44.09375 9.09375 38.640625 3.75 
Q 33.203125 -1.59375 25.09375 -1.59375 
Q 16.703125 -1.59375 11.703125 3.046875 
Q 6.703125 7.703125 6.703125 14.796875 
Q 6.703125 19.09375 8.703125 23.25 
Q 10.703125 27.40625 19.796875 31.203125 
z
M 27.5 35.5 
Q 31.59375 37.40625 33.796875 41.046875 
Q 36 44.703125 36 49 
Q 36 54.296875 32.953125 57.75 
Q 29.90625 61.203125 24.5 61.203125 
Q 19.59375 61.203125 16.5 57.84375 
Q 13.40625 54.5 13.40625 49.59375 
Q 13.40625 47.09375 14.296875 44.6875 
Q 15.203125 42.296875 19.25 39.5 
Q 23.296875 36.703125 27.5 35.5 
z
M 22.203125 30.09375 
Q 17.09375 27.59375 14.890625 23.9375 
Q 12.703125 20.296875 12.703125 14.203125 
Q 12.703125 8.09375 16.203125 4.4375 
Q 19.703125 0.796875 25 0.796875 
Q 30.5 0.796875 34.140625 4.4375 
Q 37.796875 8.09375 37.796875 13.796875 
Q 37.796875 19.796875 34.140625 23.390625 
Q 30.5 27 22.203125 30.09375 
z
" id="STKaiti-56"/>
       </defs>
       <use xlink:href="#STKaiti-48"/>
       <use x="46.899994" xlink:href="#STKaiti-46"/>
       <use x="68.799988" xlink:href="#STKaiti-48"/>
       <use x="115.699982" xlink:href="#STKaiti-56"/>
      </g>
     </g>
    </g>
    <g id="ytick_2">
     <g id="line2d_6">
      <g>
       <use style="stroke:#000000;stroke-width:0.8;" x="81" xlink:href="#mdcd8e31938" y="375.994335"/>
      </g>
     </g>
     <g id="text_7">
      <!-- 0.09 -->
      <g transform="translate(41.475 382.594335)scale(0.2 -0.2)">
       <defs>
        <path d="M 26.203125 25.796875 
Q 23.40625 24.296875 20.296875 24.296875 
Q 13.90625 24.296875 9.15625 29.84375 
Q 4.40625 35.40625 4.40625 43.59375 
Q 4.40625 52 9.796875 57.75 
Q 15.203125 63.5 22.90625 63.5 
Q 31.59375 63.5 36.890625 56.59375 
Q 42.203125 49.703125 42.203125 38.703125 
Q 42.203125 23.203125 32.75 11.703125 
Q 23.296875 0.203125 8.5 -1.90625 
L 8.09375 0.296875 
Q 20.796875 2.796875 27.9375 13.390625 
Q 35.09375 24 35.09375 39.59375 
Q 35.09375 50 31.59375 55.640625 
Q 28.09375 61.296875 22.09375 61.296875 
Q 17.5 61.296875 14.59375 56.1875 
Q 11.703125 51.09375 11.703125 42.703125 
Q 11.703125 35.796875 14.5 31.59375 
Q 17.296875 27.40625 21.90625 27.40625 
Q 23.5 27.40625 25.296875 27.90625 
z
" id="STKaiti-57"/>
       </defs>
       <use xlink:href="#STKaiti-48"/>
       <use x="46.899994" xlink:href="#STKaiti-46"/>
       <use x="68.799988" xlink:href="#STKaiti-48"/>
       <use x="115.699982" xlink:href="#STKaiti-57"/>
      </g>
     </g>
    </g>
    <g id="ytick_3">
     <g id="line2d_7">
      <g>
       <use style="stroke:#000000;stroke-width:0.8;" x="81" xlink:href="#mdcd8e31938" y="329.268591"/>
      </g>
     </g>
     <g id="text_8">
      <!-- 0.10 -->
      <g transform="translate(41.475 335.868591)scale(0.2 -0.2)">
       <use xlink:href="#STKaiti-48"/>
       <use x="46.899994" xlink:href="#STKaiti-46"/>
       <use x="68.799988" xlink:href="#STKaiti-49"/>
       <use x="115.699982" xlink:href="#STKaiti-48"/>
      </g>
     </g>
    </g>
    <g id="ytick_4">
     <g id="line2d_8">
      <g>
       <use style="stroke:#000000;stroke-width:0.8;" x="81" xlink:href="#mdcd8e31938" y="282.542846"/>
      </g>
     </g>
     <g id="text_9">
      <!-- 0.11 -->
      <g transform="translate(41.475 289.142846)scale(0.2 -0.2)">
       <use xlink:href="#STKaiti-48"/>
       <use x="46.899994" xlink:href="#STKaiti-46"/>
       <use x="68.799988" xlink:href="#STKaiti-49"/>
       <use x="115.699982" xlink:href="#STKaiti-49"/>
      </g>
     </g>
    </g>
    <g id="ytick_5">
     <g id="line2d_9">
      <g>
       <use style="stroke:#000000;stroke-width:0.8;" x="81" xlink:href="#mdcd8e31938" y="235.817102"/>
      </g>
     </g>
     <g id="text_10">
      <!-- 0.12 -->
      <g transform="translate(41.475 242.417102)scale(0.2 -0.2)">
       <defs>
        <path d="M 42.59375 -0.296875 
Q 35.40625 0 22.203125 0 
Q 9.296875 0 2.203125 -0.296875 
Q 4.09375 3.59375 7 7.09375 
Q 9.90625 10.59375 16.296875 17 
Q 25.59375 26.296875 29.890625 32.84375 
Q 34.203125 39.40625 34.203125 46.09375 
Q 34.203125 51.59375 30.75 55 
Q 27.296875 58.40625 22.203125 58.40625 
Q 17.203125 58.40625 13.09375 54.953125 
Q 9 51.5 7.40625 45.203125 
L 5.09375 45.59375 
Q 6.703125 54.09375 11.796875 58.796875 
Q 16.90625 63.5 24.203125 63.5 
Q 31.5 63.5 36.59375 58.640625 
Q 41.703125 53.796875 41.703125 47 
Q 41.703125 40.203125 36.953125 34.25 
Q 32.203125 28.296875 22.59375 19.40625 
Q 17.5 14.703125 9.90625 5.296875 
L 33.40625 5.296875 
Q 37.203125 5.296875 38.75 6.640625 
Q 40.296875 8 42 12.5 
L 44.09375 12.5 
z
" id="STKaiti-50"/>
       </defs>
       <use xlink:href="#STKaiti-48"/>
       <use x="46.899994" xlink:href="#STKaiti-46"/>
       <use x="68.799988" xlink:href="#STKaiti-49"/>
       <use x="115.699982" xlink:href="#STKaiti-50"/>
      </g>
     </g>
    </g>
    <g id="ytick_6">
     <g id="line2d_10">
      <g>
       <use style="stroke:#000000;stroke-width:0.8;" x="81" xlink:href="#mdcd8e31938" y="189.091357"/>
      </g>
     </g>
     <g id="text_11">
      <!-- 0.13 -->
      <g transform="translate(41.475 195.691357)scale(0.2 -0.2)">
       <defs>
        <path d="M 9.40625 48.90625 
L 7.59375 49.90625 
Q 10.5 56.796875 14.59375 60.140625 
Q 18.703125 63.5 24.90625 63.5 
Q 30.5 63.5 34.296875 60.296875 
Q 38.09375 57.09375 38.09375 53.203125 
Q 38.09375 49.296875 35.4375 45.796875 
Q 32.796875 42.296875 27.203125 38.09375 
Q 34.5 38.59375 38.890625 33.796875 
Q 43.296875 29 43.296875 21.5 
Q 43.296875 11.796875 36.390625 5.09375 
Q 29.5 -1.59375 18.796875 -1.59375 
Q 11.90625 -1.59375 8.296875 0.046875 
Q 4.703125 1.703125 4.703125 3.90625 
Q 4.703125 4.90625 5.640625 5.75 
Q 6.59375 6.59375 7.703125 6.59375 
Q 9.40625 6.59375 11.59375 4.796875 
Q 17.203125 0.59375 21.09375 0.59375 
Q 27.203125 0.59375 31.84375 5.890625 
Q 36.5 11.203125 36.5 18.796875 
Q 36.5 25.203125 33.34375 29.34375 
Q 30.203125 33.5 25.40625 33.5 
Q 21.703125 33.5 17.796875 30.09375 
L 16.703125 32 
Q 18.703125 33.796875 21.09375 35.59375 
Q 32.09375 43.703125 32.09375 49.296875 
Q 32.09375 53.40625 29.34375 55.90625 
Q 26.59375 58.40625 22.5 58.40625 
Q 18.5 58.40625 14.953125 55.953125 
Q 11.40625 53.5 9.40625 48.90625 
z
" id="STKaiti-51"/>
       </defs>
       <use xlink:href="#STKaiti-48"/>
       <use x="46.899994" xlink:href="#STKaiti-46"/>
       <use x="68.799988" xlink:href="#STKaiti-49"/>
       <use x="115.699982" xlink:href="#STKaiti-51"/>
      </g>
     </g>
    </g>
    <g id="ytick_7">
     <g id="line2d_11">
      <g>
       <use style="stroke:#000000;stroke-width:0.8;" x="81" xlink:href="#mdcd8e31938" y="142.365612"/>
      </g>
     </g>
     <g id="text_12">
      <!-- 0.14 -->
      <g transform="translate(41.475 148.965612)scale(0.2 -0.2)">
       <defs>
        <path d="M 32.59375 63.5 
L 35 63.5 
L 35 22 
L 45.59375 22 
L 45.59375 17.40625 
L 35 17.40625 
L 35 -1.59375 
L 28.40625 -1.59375 
L 28.40625 17.40625 
L 2.796875 17.40625 
L 2.796875 20.703125 
L 14.703125 38.09375 
z
M 28.40625 22 
L 28.40625 52.703125 
Q 14.796875 33.796875 7.59375 22 
z
" id="STKaiti-52"/>
       </defs>
       <use xlink:href="#STKaiti-48"/>
       <use x="46.899994" xlink:href="#STKaiti-46"/>
       <use x="68.799988" xlink:href="#STKaiti-49"/>
       <use x="115.699982" xlink:href="#STKaiti-52"/>
      </g>
     </g>
    </g>
    <g id="ytick_8">
     <g id="line2d_12">
      <g>
       <use style="stroke:#000000;stroke-width:0.8;" x="81" xlink:href="#mdcd8e31938" y="95.639868"/>
      </g>
     </g>
     <g id="text_13">
      <!-- 0.15 -->
      <g transform="translate(41.475 102.239868)scale(0.2 -0.2)">
       <use xlink:href="#STKaiti-48"/>
       <use x="46.899994" xlink:href="#STKaiti-46"/>
       <use x="68.799988" xlink:href="#STKaiti-49"/>
       <use x="115.699982" xlink:href="#STKaiti-53"/>
      </g>
     </g>
    </g>
    <g id="text_14">
     <!-- MSE -->
     <g transform="translate(32.334375 274.199687)rotate(-90)scale(0.2 -0.2)">
      <defs>
       <path d="M 82.5 -0.296875 
Q 72.90625 0 68.203125 0 
Q 62 0 53.90625 -0.296875 
L 53.90625 1.296875 
L 59.90625 2.5 
Q 62.203125 3 62.796875 4 
Q 63.40625 5 63.40625 7.90625 
L 63.40625 54.59375 
L 41 -0.796875 
L 14.40625 58.90625 
L 14.40625 7.296875 
Q 14.40625 2.59375 17.40625 2.296875 
L 26.59375 1.296875 
L 26.59375 -0.296875 
Q 20.59375 0 13.703125 0 
Q 8.59375 0 0.703125 -0.296875 
L 0.703125 1.296875 
L 6.203125 2.296875 
Q 10 3 10.75 3.953125 
Q 11.5 4.90625 11.5 7.296875 
L 11.5 60.09375 
L 2.40625 61.203125 
L 2.40625 62.796875 
Q 4.09375 62.5 12 62.5 
Q 18.703125 62.5 21.203125 62.796875 
L 43.40625 13.203125 
L 63.59375 62.796875 
Q 68.5 62.5 73.40625 62.5 
Q 78.203125 62.5 82.40625 62.796875 
L 82.40625 61.203125 
L 76.203125 59.90625 
Q 73.296875 59.296875 72.1875 58.09375 
Q 71.09375 56.90625 71.09375 54 
L 71.09375 8.59375 
Q 71.09375 5.5 71.640625 4.453125 
Q 72.203125 3.40625 74 3 
L 82.5 1.296875 
z
" id="STKaiti-77"/>
       <path d="M 37.59375 47.703125 
Q 34.703125 60.796875 23.203125 60.796875 
Q 17.796875 60.796875 14.140625 57.6875 
Q 10.5 54.59375 10.5 50.40625 
Q 10.5 47.09375 13.453125 44.296875 
Q 16.40625 41.5 25.703125 36.703125 
Q 35.203125 31.796875 39.453125 28.09375 
Q 43.703125 24.40625 43.703125 17.09375 
Q 43.703125 8.703125 37.84375 3.546875 
Q 32 -1.59375 21.5 -1.59375 
Q 11.796875 -1.59375 3.796875 3.09375 
L 4.90625 18 
L 6.296875 18 
Q 7.203125 10.59375 12.296875 5.84375 
Q 17.40625 1.09375 23.59375 1.09375 
Q 29.5 1.09375 33.546875 4.59375 
Q 37.59375 8.09375 37.59375 13 
Q 37.59375 17.40625 34.34375 20.40625 
Q 31.09375 23.40625 23.59375 27.296875 
Q 13.203125 32.703125 9.09375 37.09375 
Q 5 41.5 5 47.203125 
Q 5 54.296875 10.5 58.890625 
Q 16 63.5 24.796875 63.5 
Q 33.59375 63.5 39.296875 59.09375 
L 38.90625 47.703125 
z
" id="STKaiti-83"/>
      </defs>
      <use xlink:href="#STKaiti-77"/>
      <use x="83.299988" xlink:href="#STKaiti-83"/>
      <use x="131.199982" xlink:href="#STKaiti-69"/>
     </g>
    </g>
   </g>
   <g id="line2d_13">
    <path clip-path="url(#p46f2e196b9)" d="M 103.827273 78.12 
L 127.855981 145.564612 
L 151.884689 195.434449 
L 175.913397 233.575027 
L 199.942105 263.302531 
L 223.970813 287.635422 
L 247.999522 308.086236 
L 272.02823 325.385011 
L 296.056938 340.343838 
L 320.085646 353.449479 
L 344.114354 365.00575 
L 368.143062 375.264247 
L 392.17177 384.477751 
L 416.200478 392.855419 
L 440.229187 400.524879 
L 464.257895 407.542424 
L 488.286603 414.07554 
L 512.315311 420.116255 
L 536.344019 425.703909 
L 560.372727 430.92 
" style="fill:none;stroke:#1f77b4;stroke-linecap:square;stroke-width:1.5;"/>
    <defs>
     <path d="M -3 3 
L 3 3 
L 3 -3 
L -3 -3 
z
" id="me6a8830fd1" style="stroke:#1f77b4;stroke-linejoin:miter;"/>
    </defs>
    <g clip-path="url(#p46f2e196b9)">
     <use style="fill:#1f77b4;stroke:#1f77b4;stroke-linejoin:miter;" x="103.827273" xlink:href="#me6a8830fd1" y="78.12"/>
     <use style="fill:#1f77b4;stroke:#1f77b4;stroke-linejoin:miter;" x="127.855981" xlink:href="#me6a8830fd1" y="145.564612"/>
     <use style="fill:#1f77b4;stroke:#1f77b4;stroke-linejoin:miter;" x="151.884689" xlink:href="#me6a8830fd1" y="195.434449"/>
     <use style="fill:#1f77b4;stroke:#1f77b4;stroke-linejoin:miter;" x="175.913397" xlink:href="#me6a8830fd1" y="233.575027"/>
     <use style="fill:#1f77b4;stroke:#1f77b4;stroke-linejoin:miter;" x="199.942105" xlink:href="#me6a8830fd1" y="263.302531"/>
     <use style="fill:#1f77b4;stroke:#1f77b4;stroke-linejoin:miter;" x="223.970813" xlink:href="#me6a8830fd1" y="287.635422"/>
     <use style="fill:#1f77b4;stroke:#1f77b4;stroke-linejoin:miter;" x="247.999522" xlink:href="#me6a8830fd1" y="308.086236"/>
     <use style="fill:#1f77b4;stroke:#1f77b4;stroke-linejoin:miter;" x="272.02823" xlink:href="#me6a8830fd1" y="325.385011"/>
     <use style="fill:#1f77b4;stroke:#1f77b4;stroke-linejoin:miter;" x="296.056938" xlink:href="#me6a8830fd1" y="340.343838"/>
     <use style="fill:#1f77b4;stroke:#1f77b4;stroke-linejoin:miter;" x="320.085646" xlink:href="#me6a8830fd1" y="353.449479"/>
     <use style="fill:#1f77b4;stroke:#1f77b4;stroke-linejoin:miter;" x="344.114354" xlink:href="#me6a8830fd1" y="365.00575"/>
     <use style="fill:#1f77b4;stroke:#1f77b4;stroke-linejoin:miter;" x="368.143062" xlink:href="#me6a8830fd1" y="375.264247"/>
     <use style="fill:#1f77b4;stroke:#1f77b4;stroke-linejoin:miter;" x="392.17177" xlink:href="#me6a8830fd1" y="384.477751"/>
     <use style="fill:#1f77b4;stroke:#1f77b4;stroke-linejoin:miter;" x="416.200478" xlink:href="#me6a8830fd1" y="392.855419"/>
     <use style="fill:#1f77b4;stroke:#1f77b4;stroke-linejoin:miter;" x="440.229187" xlink:href="#me6a8830fd1" y="400.524879"/>
     <use style="fill:#1f77b4;stroke:#1f77b4;stroke-linejoin:miter;" x="464.257895" xlink:href="#me6a8830fd1" y="407.542424"/>
     <use style="fill:#1f77b4;stroke:#1f77b4;stroke-linejoin:miter;" x="488.286603" xlink:href="#me6a8830fd1" y="414.07554"/>
     <use style="fill:#1f77b4;stroke:#1f77b4;stroke-linejoin:miter;" x="512.315311" xlink:href="#me6a8830fd1" y="420.116255"/>
     <use style="fill:#1f77b4;stroke:#1f77b4;stroke-linejoin:miter;" x="536.344019" xlink:href="#me6a8830fd1" y="425.703909"/>
     <use style="fill:#1f77b4;stroke:#1f77b4;stroke-linejoin:miter;" x="560.372727" xlink:href="#me6a8830fd1" y="430.92"/>
    </g>
   </g>
   <g id="patch_3">
    <path d="M 81 448.56 
L 81 60.48 
" style="fill:none;stroke:#000000;stroke-linecap:square;stroke-linejoin:miter;stroke-width:0.8;"/>
   </g>
   <g id="patch_4">
    <path d="M 583.2 448.56 
L 583.2 60.48 
" style="fill:none;stroke:#000000;stroke-linecap:square;stroke-linejoin:miter;stroke-width:0.8;"/>
   </g>
   <g id="patch_5">
    <path d="M 81 448.56 
L 583.2 448.56 
" style="fill:none;stroke:#000000;stroke-linecap:square;stroke-linejoin:miter;stroke-width:0.8;"/>
   </g>
   <g id="patch_6">
    <path d="M 81 60.48 
L 583.2 60.48 
" style="fill:none;stroke:#000000;stroke-linecap:square;stroke-linejoin:miter;stroke-width:0.8;"/>
   </g>
   <g id="legend_1">
    <g id="patch_7">
     <path d="M 465.2 105.620625 
L 569.2 105.620625 
Q 573.2 105.620625 573.2 101.620625 
L 573.2 74.48 
Q 573.2 70.48 569.2 70.48 
L 465.2 70.48 
Q 461.2 70.48 461.2 74.48 
L 461.2 101.620625 
Q 461.2 105.620625 465.2 105.620625 
z
" style="fill:#ffffff;opacity:0.8;stroke:#cccccc;stroke-linejoin:miter;"/>
    </g>
    <g id="line2d_14">
     <path d="M 469.2 85.48 
L 509.2 85.48 
" style="fill:none;stroke:#1f77b4;stroke-linecap:square;stroke-width:1.5;"/>
    </g>
    <g id="line2d_15">
     <g>
      <use style="fill:#1f77b4;stroke:#1f77b4;stroke-linejoin:miter;" x="489.2" xlink:href="#me6a8830fd1" y="85.48"/>
     </g>
    </g>
    <g id="text_15">
     <!-- шонч╗Г -->
     <g transform="translate(525.2 92.48)scale(0.2 -0.2)">
      <defs>
       <path d="M 85.90625 64.796875 
Q 85.90625 63.796875 85.296875 62.75 
Q 84.703125 61.703125 84.09375 58.09375 
Q 83.5 54.5 83.5 52.203125 
L 83.5 41.296875 
L 83.40625 24.40625 
Q 83.40625 9 83.65625 6.09375 
Q 83.90625 3.203125 83.90625 -2.4375 
Q 83.90625 -8.09375 82.953125 -10.796875 
Q 82 -13.5 80.953125 -13.5 
Q 79.90625 -13.5 78.203125 -10.25 
Q 76.5 -7 76.546875 -4.75 
Q 76.59375 -2.5 77.703125 3.703125 
Q 78.59375 7.296875 78.59375 32.59375 
Q 78.59375 57.90625 78.296875 62.09375 
Q 78 66.296875 76.84375 67.59375 
Q 75.703125 68.90625 75.703125 69.796875 
Q 75.703125 70.703125 77.09375 70.703125 
Q 78.5 70.703125 82.203125 68.84375 
Q 85.90625 67 85.90625 64.796875 
z
M 26.40625 64.796875 
Q 30.40625 64.796875 33.546875 63.84375 
Q 36.703125 62.90625 37.796875 60.84375 
Q 38.90625 58.796875 38.90625 57 
Q 38.90625 54.40625 36.703125 54.40625 
Q 35 54.40625 32.75 56.09375 
Q 30.5 57.796875 27.390625 60.34375 
Q 24.296875 62.90625 24.296875 63.84375 
Q 24.296875 64.796875 26.40625 64.796875 
z
M 54.5 53.09375 
Q 54.5 52.296875 54.09375 51 
Q 53.703125 49.703125 53.796875 44.796875 
L 53.796875 40 
Q 53.796875 22.703125 51 14.296875 
Q 48.203125 5.90625 42.046875 0.796875 
Q 35.90625 -4.296875 34.203125 -4.296875 
Q 33.59375 -4.296875 33.59375 -3.6875 
Q 33.59375 -3.09375 34.90625 -2 
Q 37.59375 0.40625 42.296875 7.203125 
Q 47 14 48 20.84375 
Q 49 27.703125 49 37.140625 
Q 49 46.59375 48.390625 50.390625 
Q 47.796875 54.203125 47.296875 54.90625 
Q 46.09375 56.90625 46.09375 58 
Q 46.09375 59.09375 47.390625 59.09375 
Q 48.703125 59.09375 51.59375 57.296875 
Q 54.5 55.5 54.5 53.09375 
z
M 69.203125 50.296875 
Q 69.203125 49.59375 68.703125 48.84375 
Q 68.203125 48.09375 67.75 46 
Q 67.296875 43.90625 67.296875 31.546875 
Q 67.296875 19.203125 67.34375 18.390625 
Q 67.40625 17.59375 67.40625 15 
Q 67.40625 12.40625 66.953125 9.5 
Q 66.5 6.59375 65.5 6.59375 
Q 64.5 6.59375 63.203125 9.25 
Q 61.90625 11.90625 61.90625 13.59375 
Q 61.90625 15.296875 63 19.203125 
Q 63.296875 20.296875 63.296875 31.140625 
Q 63.296875 42 63.046875 45.796875 
Q 62.796875 49.59375 62.1875 51.25 
Q 61.59375 52.90625 61.59375 53.796875 
Q 61.59375 54.703125 62.6875 54.703125 
Q 63.796875 54.703125 66.5 53.34375 
Q 69.203125 52 69.203125 50.296875 
z
M 30.296875 14.40625 
Q 41 23.90625 42.90625 23.90625 
Q 43.5 23.90625 43.5 23.25 
Q 43.5 22.59375 42.296875 21.203125 
Q 38.203125 16.5 33.5 10.796875 
Q 28.796875 5.09375 28.296875 4.09375 
Q 26.296875 0.296875 25.09375 0.296875 
Q 23.90625 0.296875 22.5 2.9375 
Q 21.09375 5.59375 21.09375 7.140625 
Q 21.09375 8.703125 22.5 10.09375 
Q 23.90625 11.5 25.046875 14.140625 
Q 26.203125 16.796875 26.640625 24.640625 
Q 27.09375 32.5 27.09375 35.5 
Q 27.09375 38.5 26.4375 38.5 
Q 25.796875 38.5 23.296875 37 
Q 17.5 33.703125 14.203125 33.703125 
Q 12.296875 33.703125 10.390625 35.140625 
Q 8.5 36.59375 8.5 37.296875 
Q 8.5 38.203125 11.796875 38.390625 
Q 15.09375 38.59375 19.1875 39.9375 
Q 23.296875 41.296875 24.796875 42.796875 
Q 26.296875 44.296875 27.140625 44.84375 
Q 28 45.40625 29.25 45.40625 
Q 30.5 45.40625 33.453125 44.65625 
Q 36.40625 43.90625 36.40625 42.59375 
Q 36.40625 41.296875 34.90625 40.09375 
Q 33.40625 38.90625 32.59375 36.34375 
Q 31.796875 33.796875 31.09375 25.390625 
Q 30.40625 17 30.296875 14.40625 
z
" id="STKaiti-35757"/>
       <path d="M 71.40625 28.203125 
Q 75.90625 29.09375 78.65625 29.796875 
Q 81.40625 30.5 83.5 30.5 
Q 87.703125 30.5 89.640625 28.796875 
Q 91.59375 27.09375 91.59375 25.6875 
Q 91.59375 24.296875 88.40625 24.296875 
Q 87.59375 24.296875 84.84375 24.546875 
Q 82.09375 24.796875 78 24.796875 
Q 73.90625 24.796875 71.296875 24.59375 
Q 71.703125 9.59375 71.953125 5.75 
Q 72.203125 1.90625 72.203125 0.59375 
Q 72.203125 -5.09375 69.84375 -8.640625 
Q 67.5 -12.203125 65.90625 -12.203125 
Q 64.90625 -12.203125 64 -10.703125 
Q 61 -5.703125 58.84375 -3.5 
Q 56.703125 -1.296875 56.703125 -0.9375 
Q 56.703125 -0.59375 57.34375 -0.59375 
Q 58 -0.59375 60.34375 -1.25 
Q 62.703125 -1.90625 63.953125 -1.90625 
Q 65.203125 -1.90625 65.84375 -0.75 
Q 66.5 0.40625 66.890625 4.65625 
Q 67.296875 8.90625 67.296875 14.453125 
Q 67.296875 20 67.09375 24.203125 
Q 54.40625 22.40625 50.796875 20.59375 
Q 48.5 19.40625 47.59375 19.40625 
Q 46.703125 19.40625 45.703125 20.84375 
Q 44.703125 22.296875 44.703125 23.203125 
Q 44.703125 24.796875 46.5 25.59375 
Q 49.203125 26.59375 53.203125 34.40625 
Q 50.796875 34.59375 49.4375 35.34375 
Q 48.09375 36.09375 48.09375 36.640625 
Q 48.09375 37.203125 50.84375 37.390625 
Q 53.59375 37.59375 54.796875 37.796875 
Q 57.203125 42.703125 58.90625 47.296875 
Q 53 47.203125 50.703125 47.84375 
Q 48.40625 48.5 48.40625 49.25 
Q 48.40625 50 50.90625 50.203125 
Q 53.40625 50.40625 60.40625 51.40625 
Q 65 64.5 65 66.953125 
Q 65 69.40625 64.546875 70.59375 
Q 64.09375 71.796875 64.09375 72.296875 
Q 64.09375 73.59375 65.796875 73.59375 
Q 67.5 73.59375 70.390625 71.75 
Q 73.296875 69.90625 73.296875 68.09375 
Q 73.296875 67.09375 72.40625 66.203125 
Q 70.203125 63.90625 65.40625 52.296875 
L 78.40625 55.09375 
Q 80.5 55.703125 82.34375 55.703125 
Q 84.203125 55.703125 86.203125 54.640625 
Q 88.203125 53.59375 88.203125 52.703125 
Q 88.203125 51.09375 82.59375 50.140625 
Q 77 49.203125 63.59375 47.703125 
L 58.90625 38.203125 
Q 62.90625 38.90625 64.90625 40.046875 
Q 66.90625 41.203125 68.453125 41.203125 
Q 70 41.203125 71.953125 40.140625 
Q 73.90625 39.09375 73.90625 38.1875 
Q 73.90625 37.296875 72.90625 35.5 
Q 71.90625 33.703125 71.40625 28.203125 
z
M 67 27.5 
Q 66.59375 33.5 66.390625 34.703125 
Q 66.203125 35.90625 65.046875 35.90625 
Q 63.90625 35.90625 62.40625 35.59375 
Q 60.90625 35.296875 57 34.796875 
Q 53.90625 28.90625 51.5 24.90625 
z
M 33.796875 43.703125 
Q 37.59375 48.90625 38.84375 51.296875 
Q 40.09375 53.703125 40.296875 55.5 
Q 40.5 57.296875 41.640625 57.296875 
Q 42.796875 57.296875 44.640625 55.34375 
Q 46.5 53.40625 46.5 51.796875 
Q 46.5 50.203125 44.796875 49 
Q 41.796875 46.90625 25.203125 27.59375 
Q 37.90625 31.296875 42 31.296875 
Q 43.90625 31.296875 43.90625 30.5 
Q 43.90625 29.703125 42.703125 29.203125 
Q 25.5 22.703125 23.40625 21 
Q 22.296875 20.09375 21.046875 20.09375 
Q 19.796875 20.09375 18.9375 22.25 
Q 18.09375 24.40625 18.09375 25.59375 
Q 18.09375 26.796875 19.59375 27.59375 
Q 21.796875 28.796875 24.34375 31.4375 
Q 26.90625 34.09375 32 41.09375 
Q 23.40625 41.09375 19.296875 39.5 
Q 18.40625 39.09375 17.5 39.09375 
Q 16.59375 39.09375 15.84375 40.890625 
Q 15.09375 42.703125 15.09375 43.75 
Q 15.09375 44.796875 17.203125 45.59375 
Q 20.90625 47 23.34375 51.546875 
Q 25.796875 56.09375 27.640625 59.890625 
Q 29.5 63.703125 29.5 68.90625 
Q 29.5 70.5 30.796875 70.5 
Q 32.09375 70.5 35.296875 68.453125 
Q 38.5 66.40625 38.5 65.09375 
Q 38.5 63.796875 36.75 62.796875 
Q 35 61.796875 22.59375 44.703125 
Q 28.09375 43.90625 33.796875 43.703125 
z
M 44 15.796875 
Q 44 15 41.90625 13.90625 
Q 23.203125 4.703125 19.40625 1.90625 
Q 17.703125 0.703125 16.453125 0.703125 
Q 15.203125 0.703125 12.953125 3.296875 
Q 10.703125 5.90625 10.703125 7.046875 
Q 10.703125 8.203125 12.390625 8.203125 
Q 14.09375 8.203125 16.796875 8.796875 
Q 19.5 9.40625 22.203125 10.40625 
Q 24.90625 11.40625 31.75 13.59375 
Q 38.59375 15.796875 40.046875 16.140625 
Q 41.5 16.5 42.75 16.5 
Q 44 16.5 44 15.796875 
z
M 52 15.296875 
Q 52.5 15.296875 53.09375 13.84375 
Q 53.703125 12.40625 53.703125 10.046875 
Q 53.703125 7.703125 52.09375 4.140625 
Q 50.5 0.59375 48.640625 -1.34375 
Q 46.796875 -3.296875 45.546875 -3.296875 
Q 44.296875 -3.296875 44.296875 0.296875 
Q 44.296875 3.90625 46.59375 6.796875 
Q 50 11 51.203125 14.203125 
Q 51.59375 15.296875 52 15.296875 
z
M 93.09375 1.796875 
Q 93.09375 -2.40625 91.203125 -2.40625 
Q 89.796875 -2.40625 87.796875 0.296875 
L 81.703125 8.296875 
Q 77.796875 13.59375 77.796875 14.25 
Q 77.796875 14.90625 78.296875 14.90625 
Q 79.296875 14.90625 83.890625 12.90625 
Q 88.5 10.90625 90.796875 8.296875 
Q 93.09375 5.703125 93.09375 1.796875 
z
" id="STKaiti-32451"/>
      </defs>
      <use xlink:href="#STKaiti-35757"/>
      <use x="99.999985" xlink:href="#STKaiti-32451"/>
     </g>
    </g>
   </g>
  </g>
 </g>
 <defs>
  <clipPath id="p46f2e196b9">
   <rect height="388.08" width="502.2" x="81" y="60.48"/>
  </clipPath>
 </defs>
</svg>
